<svg xmlns="http://www.w3.org/2000/svg" xmlns:xlink="http://www.w3.org/1999/xlink" width="250" zoomAndPan="magnify" viewBox="0 0 187.5 60" height="80" preserveAspectRatio="xMidYMid meet" version="1.0"><defs><g/><clipPath id="id1"><path d="M 150 0.078125 L 167 0.078125 L 167 20 L 150 20 Z M 150 0.078125 " clip-rule="nonzero"/></clipPath><clipPath id="id2"><path d="M 149.957031 0.078125 L 167 0.078125 L 167 20 L 149.957031 20 Z M 149.957031 0.078125 " clip-rule="nonzero"/></clipPath><clipPath id="id3"><path d="M 163 8 L 183.707031 8 L 183.707031 33.828125 L 163 33.828125 Z M 163 8 " clip-rule="nonzero"/></clipPath></defs><g clip-path="url(#id1)"><path fill="rgb(31.369019%, 77.648926%, 93.328857%)" d="M 163.578125 0.417969 L 153.292969 0.417969 C 151.644531 0.417969 150.308594 1.753906 150.308594 3.40625 L 150.308594 13.171875 C 150.308594 14.820312 151.644531 16.15625 153.292969 16.15625 L 153.734375 16.15625 C 153.753906 16.328125 154.039062 18.480469 157.058594 19.507812 C 157.058594 19.507812 156.339844 18.042969 156.390625 16.15625 L 163.578125 16.15625 C 165.230469 16.15625 166.566406 14.820312 166.566406 13.171875 L 166.566406 3.40625 C 166.566406 1.753906 165.230469 0.417969 163.578125 0.417969 Z M 163.578125 0.417969 " fill-opacity="1" fill-rule="nonzero"/></g><g clip-path="url(#id2)"><path fill="rgb(20.779419%, 19.999695%, 19.999695%)" d="M 157.058594 19.84375 C 157.019531 19.84375 156.984375 19.839844 156.949219 19.828125 C 154.3125 18.933594 153.628906 17.210938 153.453125 16.496094 L 153.292969 16.496094 C 151.460938 16.496094 149.96875 15.003906 149.96875 13.171875 L 149.96875 3.40625 C 149.96875 1.570312 151.460938 0.078125 153.292969 0.078125 L 163.578125 0.078125 C 165.414062 0.078125 166.902344 1.570312 166.902344 3.40625 L 166.902344 13.171875 C 166.902344 15.003906 165.414062 16.496094 163.578125 16.496094 L 156.726562 16.496094 C 156.761719 18.117188 157.355469 19.34375 157.359375 19.359375 C 157.421875 19.480469 157.402344 19.628906 157.3125 19.730469 C 157.246094 19.804688 157.152344 19.84375 157.058594 19.84375 Z M 153.292969 0.757812 C 151.832031 0.757812 150.644531 1.945312 150.644531 3.40625 L 150.644531 13.171875 C 150.644531 14.632812 151.832031 15.820312 153.292969 15.820312 L 153.734375 15.820312 C 153.910156 15.820312 154.054688 15.949219 154.070312 16.121094 C 154.078125 16.199219 154.285156 17.875 156.460938 18.902344 C 156.253906 18.269531 156.019531 17.285156 156.050781 16.148438 C 156.054688 15.964844 156.207031 15.820312 156.386719 15.820312 L 163.578125 15.820312 C 165.039062 15.820312 166.226562 14.632812 166.226562 13.171875 L 166.226562 3.40625 C 166.226562 1.945312 165.039062 0.757812 163.578125 0.757812 Z M 153.292969 0.757812 " fill-opacity="1" fill-rule="nonzero"/></g><path fill="rgb(20.779419%, 19.999695%, 19.999695%)" d="M 159.710938 12.890625 C 159.695312 12.890625 159.675781 12.886719 159.660156 12.886719 C 159.472656 12.855469 159.347656 12.683594 159.375 12.5 L 160.703125 3.9375 C 160.730469 3.753906 160.90625 3.628906 161.085938 3.65625 C 161.273438 3.683594 161.398438 3.855469 161.371094 4.042969 L 160.042969 12.601562 C 160.019531 12.769531 159.875 12.890625 159.710938 12.890625 Z M 159.710938 12.890625 " fill-opacity="1" fill-rule="nonzero"/><path fill="rgb(20.779419%, 19.999695%, 19.999695%)" d="M 155.839844 12.890625 C 155.820312 12.890625 155.804688 12.886719 155.785156 12.886719 C 155.601562 12.855469 155.476562 12.683594 155.503906 12.5 L 156.828125 3.9375 C 156.855469 3.753906 157.03125 3.628906 157.214844 3.65625 C 157.398438 3.683594 157.523438 3.855469 157.496094 4.042969 L 156.171875 12.601562 C 156.144531 12.769531 156 12.890625 155.839844 12.890625 Z M 155.839844 12.890625 " fill-opacity="1" fill-rule="nonzero"/><path fill="rgb(20.779419%, 19.999695%, 19.999695%)" d="M 163.015625 6.671875 L 154.457031 6.671875 C 154.269531 6.671875 154.117188 6.519531 154.117188 6.332031 C 154.117188 6.148438 154.269531 5.996094 154.457031 5.996094 L 163.015625 5.996094 C 163.203125 5.996094 163.355469 6.148438 163.355469 6.332031 C 163.355469 6.519531 163.203125 6.671875 163.015625 6.671875 Z M 163.015625 6.671875 " fill-opacity="1" fill-rule="nonzero"/><path fill="rgb(20.779419%, 19.999695%, 19.999695%)" d="M 162.417969 10.542969 L 153.855469 10.542969 C 153.667969 10.542969 153.519531 10.394531 153.519531 10.207031 C 153.519531 10.019531 153.667969 9.867188 153.855469 9.867188 L 162.417969 9.867188 C 162.605469 9.867188 162.753906 10.019531 162.753906 10.207031 C 162.753906 10.394531 162.605469 10.542969 162.417969 10.542969 Z M 162.417969 10.542969 " fill-opacity="1" fill-rule="nonzero"/><g clip-path="url(#id3)"><path fill="rgb(97.648621%, 69.799805%, 86.268616%)" d="M 180.542969 8.523438 L 166.742188 8.523438 C 165.183594 8.523438 163.921875 9.789062 163.921875 11.347656 L 163.921875 26.828125 C 163.921875 28.382812 165.183594 29.648438 166.742188 29.648438 L 175.175781 29.648438 C 175.25 31.804688 174.421875 33.492188 174.421875 33.492188 C 177.960938 32.289062 178.164062 29.703125 178.164062 29.703125 L 178.082031 29.648438 L 180.542969 29.648438 C 182.101562 29.648438 183.363281 28.382812 183.363281 26.828125 L 183.363281 11.347656 C 183.363281 9.789062 182.101562 8.523438 180.542969 8.523438 Z M 180.542969 8.523438 " fill-opacity="1" fill-rule="nonzero"/><path fill="rgb(20.779419%, 19.999695%, 19.999695%)" d="M 174.421875 33.828125 C 174.328125 33.828125 174.234375 33.789062 174.167969 33.714844 C 174.078125 33.613281 174.058594 33.464844 174.121094 33.34375 C 174.125 33.328125 174.828125 31.871094 174.839844 29.984375 L 166.742188 29.984375 C 165 29.984375 163.582031 28.570312 163.582031 26.828125 L 163.582031 11.347656 C 163.582031 9.605469 165 8.1875 166.742188 8.1875 L 180.542969 8.1875 C 182.285156 8.1875 183.703125 9.605469 183.703125 11.347656 L 183.703125 26.828125 C 183.703125 28.570312 182.285156 29.984375 180.542969 29.984375 L 178.460938 29.984375 C 178.3125 30.710938 177.621094 32.761719 174.53125 33.8125 C 174.496094 33.824219 174.460938 33.828125 174.421875 33.828125 Z M 166.742188 8.863281 C 165.375 8.863281 164.257812 9.976562 164.257812 11.347656 L 164.257812 26.828125 C 164.257812 28.195312 165.375 29.308594 166.742188 29.308594 L 175.175781 29.308594 C 175.355469 29.308594 175.503906 29.453125 175.511719 29.636719 C 175.558594 31 175.265625 32.175781 175.023438 32.894531 C 177.21875 31.898438 177.699219 30.34375 177.800781 29.839844 C 177.746094 29.753906 177.726562 29.648438 177.757812 29.550781 C 177.800781 29.40625 177.933594 29.308594 178.082031 29.308594 L 180.542969 29.308594 C 181.910156 29.308594 183.027344 28.195312 183.027344 26.828125 L 183.027344 11.347656 C 183.027344 9.976562 181.910156 8.863281 180.542969 8.863281 Z M 166.742188 8.863281 " fill-opacity="1" fill-rule="nonzero"/></g><path fill="rgb(94.119263%, 33.729553%, 33.729553%)" d="M 173.851562 15.507812 C 174.101562 15.257812 174.3125 15.03125 174.539062 14.824219 C 175.78125 13.683594 177.507812 13.441406 178.824219 14.21875 C 180.195312 15.023438 180.894531 16.753906 180.503906 18.40625 C 180.210938 19.65625 179.511719 20.6875 178.699219 21.648438 C 177.34375 23.246094 175.707031 24.53125 174.023438 25.753906 C 173.949219 25.808594 173.777344 25.828125 173.710938 25.777344 C 171.65625 24.28125 169.652344 22.722656 168.195312 20.589844 C 167.582031 19.691406 167.121094 18.722656 167.085938 17.609375 C 167.03125 16.054688 167.902344 14.621094 169.226562 14.039062 C 170.539062 13.464844 172.132812 13.8125 173.257812 14.917969 C 173.449219 15.105469 173.640625 15.296875 173.851562 15.507812 Z M 173.851562 15.507812 " fill-opacity="1" fill-rule="nonzero"/><path fill="rgb(20.779419%, 19.999695%, 19.999695%)" d="M 173.828125 26.144531 C 173.714844 26.144531 173.601562 26.117188 173.511719 26.050781 C 171.507812 24.59375 169.421875 22.984375 167.917969 20.78125 C 167.152344 19.664062 166.78125 18.660156 166.746094 17.621094 C 166.6875 15.933594 167.632812 14.371094 169.089844 13.730469 C 170.535156 13.097656 172.265625 13.46875 173.492188 14.675781 L 173.851562 15.03125 C 174.007812 14.867188 174.15625 14.71875 174.3125 14.574219 C 175.664062 13.332031 177.546875 13.070312 178.996094 13.925781 C 180.5 14.8125 181.257812 16.6875 180.832031 18.484375 C 180.492188 19.921875 179.652344 21.046875 178.957031 21.867188 C 177.550781 23.523438 175.851562 24.847656 174.222656 26.027344 C 174.125 26.097656 173.976562 26.144531 173.828125 26.144531 Z M 173.910156 25.503906 Z M 170.558594 14.101562 C 170.148438 14.101562 169.742188 14.183594 169.363281 14.351562 C 168.152344 14.878906 167.375 16.183594 167.421875 17.597656 C 167.453125 18.503906 167.789062 19.394531 168.476562 20.402344 C 169.90625 22.488281 171.90625 24.046875 173.84375 25.457031 C 175.429688 24.316406 177.085938 23.027344 178.441406 21.429688 C 179.085938 20.667969 179.867188 19.625 180.175781 18.328125 C 180.53125 16.820312 179.90625 15.246094 178.652344 14.507812 C 177.460938 13.804688 175.898438 14.03125 174.769531 15.070312 C 174.621094 15.210938 174.480469 15.355469 174.328125 15.507812 C 174.253906 15.585938 174.175781 15.664062 174.09375 15.746094 C 173.960938 15.878906 173.746094 15.878906 173.617188 15.75 L 173.019531 15.160156 C 172.320312 14.46875 171.429688 14.101562 170.558594 14.101562 Z M 170.558594 14.101562 " fill-opacity="1" fill-rule="nonzero"/><g fill="rgb(100%, 100%, 100%)" fill-opacity="1"><g transform="translate(-0.000000000000074607, 41.176474)"><g><path d="M 33.515625 -26.640625 C 35.148438 -26.054688 35.96875 -25.273438 35.96875 -24.296875 C 35.96875 -23.984375 35.820312 -23.390625 35.53125 -22.515625 L 28.5 -2.234375 C 28.457031 -2.054688 28.375 -1.847656 28.25 -1.609375 C 28.125 -1.367188 27.800781 -1.046875 27.28125 -0.640625 C 26.757812 -0.234375 26.140625 -0.03125 25.421875 -0.03125 C 24.703125 -0.03125 24.078125 -0.234375 23.546875 -0.640625 C 23.023438 -1.046875 22.679688 -1.441406 22.515625 -1.828125 L 18.234375 -14.4375 C 15.535156 -6.445312 14.160156 -2.378906 14.109375 -2.234375 C 14.054688 -2.085938 13.941406 -1.878906 13.765625 -1.609375 C 13.597656 -1.335938 13.40625 -1.09375 13.1875 -0.875 C 12.632812 -0.3125 11.96875 -0.03125 11.1875 -0.03125 C 10.40625 -0.03125 9.765625 -0.210938 9.265625 -0.578125 C 8.765625 -0.953125 8.429688 -1.320312 8.265625 -1.6875 L 8 -2.234375 L 0.953125 -22.515625 C 0.679688 -23.316406 0.546875 -23.910156 0.546875 -24.296875 C 0.546875 -25.273438 1.363281 -26.046875 3 -26.609375 C 3.707031 -26.847656 4.347656 -26.96875 4.921875 -26.96875 C 5.492188 -26.96875 5.929688 -26.769531 6.234375 -26.375 C 6.535156 -25.988281 6.804688 -25.394531 7.046875 -24.59375 L 11.078125 -12.390625 L 15.0625 -24.40625 C 15.394531 -25.4375 16.015625 -26.144531 16.921875 -26.53125 C 17.304688 -26.695312 17.8125 -26.78125 18.4375 -26.78125 C 19.0625 -26.78125 19.640625 -26.578125 20.171875 -26.171875 C 20.710938 -25.773438 21.054688 -25.382812 21.203125 -25 L 25.40625 -12.3125 L 29.421875 -24.59375 C 29.617188 -25.15625 29.773438 -25.566406 29.890625 -25.828125 C 30.015625 -26.097656 30.238281 -26.363281 30.5625 -26.625 C 30.894531 -26.882812 31.304688 -27.015625 31.796875 -27.015625 C 32.285156 -27.015625 32.859375 -26.890625 33.515625 -26.640625 Z M 33.515625 -26.640625 "/></g></g></g><g fill="rgb(100%, 100%, 100%)" fill-opacity="1"><g transform="translate(37.050599, 41.176474)"><g><path d="M 20.03125 -11.9375 C 20.03125 -10.4375 19.65625 -9.328125 18.90625 -8.609375 C 18.164062 -7.890625 17.347656 -7.53125 16.453125 -7.53125 L 7.78125 -7.53125 C 7.78125 -6.84375 8.179688 -6.265625 8.984375 -5.796875 C 9.796875 -5.335938 10.601562 -5.109375 11.40625 -5.109375 C 12.8125 -5.109375 13.921875 -5.257812 14.734375 -5.5625 L 15.125 -5.703125 C 15.707031 -5.972656 16.195312 -6.109375 16.59375 -6.109375 C 17.375 -6.109375 18.046875 -5.554688 18.609375 -4.453125 C 18.921875 -3.796875 19.078125 -3.238281 19.078125 -2.78125 C 19.078125 -0.613281 16.484375 0.46875 11.296875 0.46875 C 9.492188 0.46875 7.890625 0.160156 6.484375 -0.453125 C 5.085938 -1.078125 4 -1.898438 3.21875 -2.921875 C 1.675781 -4.898438 0.90625 -7.101562 0.90625 -9.53125 C 0.90625 -12.601562 1.898438 -15.054688 3.890625 -16.890625 C 5.878906 -18.734375 8.359375 -19.65625 11.328125 -19.65625 C 14.710938 -19.65625 17.195312 -18.460938 18.78125 -16.078125 C 19.613281 -14.816406 20.03125 -13.4375 20.03125 -11.9375 Z M 12.3125 -10.859375 C 13.238281 -10.859375 13.703125 -11.25 13.703125 -12.03125 C 13.703125 -12.582031 13.488281 -13.03125 13.0625 -13.375 C 12.632812 -13.71875 12.023438 -13.890625 11.234375 -13.890625 C 10.441406 -13.890625 9.65625 -13.566406 8.875 -12.921875 C 8.101562 -12.273438 7.71875 -11.585938 7.71875 -10.859375 Z M 12.3125 -10.859375 "/></g></g></g><g fill="rgb(100%, 100%, 100%)" fill-opacity="1"><g transform="translate(58.535586, 41.176474)"><g><path d="M 1.859375 -3.765625 C 1.222656 -4.546875 0.90625 -5.242188 0.90625 -5.859375 C 0.90625 -6.484375 1.429688 -7.304688 2.484375 -8.328125 C 3.097656 -8.910156 3.742188 -9.203125 4.421875 -9.203125 C 5.109375 -9.203125 6.054688 -8.59375 7.265625 -7.375 C 7.609375 -6.96875 8.097656 -6.570312 8.734375 -6.1875 C 9.367188 -5.8125 9.953125 -5.625 10.484375 -5.625 C 12.753906 -5.625 13.890625 -6.550781 13.890625 -8.40625 C 13.890625 -8.96875 13.578125 -9.4375 12.953125 -9.8125 C 12.335938 -10.1875 11.566406 -10.457031 10.640625 -10.625 C 9.710938 -10.800781 8.710938 -11.078125 7.640625 -11.453125 C 6.566406 -11.835938 5.566406 -12.285156 4.640625 -12.796875 C 3.710938 -13.304688 2.9375 -14.113281 2.3125 -15.21875 C 1.695312 -16.332031 1.390625 -17.664062 1.390625 -19.21875 C 1.390625 -21.363281 2.1875 -23.234375 3.78125 -24.828125 C 5.375 -26.429688 7.550781 -27.234375 10.3125 -27.234375 C 11.769531 -27.234375 13.101562 -27.039062 14.3125 -26.65625 C 15.519531 -26.28125 16.351562 -25.898438 16.8125 -25.515625 L 17.71875 -24.8125 C 18.476562 -24.101562 18.859375 -23.503906 18.859375 -23.015625 C 18.859375 -22.535156 18.566406 -21.867188 17.984375 -21.015625 C 17.148438 -19.796875 16.296875 -19.1875 15.421875 -19.1875 C 14.910156 -19.1875 14.273438 -19.429688 13.515625 -19.921875 C 13.441406 -19.960938 13.300781 -20.082031 13.09375 -20.28125 C 12.894531 -20.476562 12.707031 -20.640625 12.53125 -20.765625 C 12.019531 -21.078125 11.367188 -21.234375 10.578125 -21.234375 C 9.785156 -21.234375 9.128906 -21.039062 8.609375 -20.65625 C 8.085938 -20.28125 7.828125 -19.757812 7.828125 -19.09375 C 7.828125 -18.425781 8.132812 -17.882812 8.75 -17.46875 C 9.375 -17.050781 10.148438 -16.769531 11.078125 -16.625 C 12.003906 -16.476562 13.015625 -16.253906 14.109375 -15.953125 C 15.203125 -15.648438 16.210938 -15.28125 17.140625 -14.84375 C 18.066406 -14.40625 18.835938 -13.640625 19.453125 -12.546875 C 20.078125 -11.460938 20.390625 -10.128906 20.390625 -8.546875 C 20.390625 -6.960938 20.070312 -5.566406 19.4375 -4.359375 C 18.8125 -3.160156 17.984375 -2.234375 16.953125 -1.578125 C 14.984375 -0.285156 12.878906 0.359375 10.640625 0.359375 C 9.492188 0.359375 8.40625 0.222656 7.375 -0.046875 C 6.351562 -0.328125 5.523438 -0.675781 4.890625 -1.09375 C 3.597656 -1.875 2.695312 -2.628906 2.1875 -3.359375 Z M 1.859375 -3.765625 "/></g></g></g><g fill="rgb(100%, 100%, 100%)" fill-opacity="1"><g transform="translate(80.385961, 41.176474)"><g><path d="M 12.140625 -19.1875 C 14.566406 -19.1875 16.59375 -18.257812 18.21875 -16.40625 C 19.84375 -14.550781 20.65625 -12.285156 20.65625 -9.609375 L 20.65625 -3.171875 C 20.65625 -2.617188 20.632812 -2.203125 20.59375 -1.921875 C 20.5625 -1.640625 20.445312 -1.316406 20.25 -0.953125 C 19.925781 -0.316406 18.988281 0 17.4375 0 C 15.945312 0 15.019531 -0.316406 14.65625 -0.953125 C 14.457031 -1.316406 14.335938 -1.644531 14.296875 -1.9375 C 14.265625 -2.226562 14.25 -2.664062 14.25 -3.25 L 14.25 -9.640625 C 14.25 -10.640625 13.96875 -11.421875 13.40625 -11.984375 C 12.851562 -12.546875 12.144531 -12.828125 11.28125 -12.828125 C 10.414062 -12.828125 9.648438 -12.5625 8.984375 -12.03125 C 8.328125 -11.507812 7.953125 -10.921875 7.859375 -10.265625 L 7.859375 -3.171875 C 7.859375 -2.617188 7.835938 -2.203125 7.796875 -1.921875 C 7.765625 -1.640625 7.648438 -1.316406 7.453125 -0.953125 C 7.140625 -0.316406 6.203125 0 4.640625 0 C 3.109375 0 2.171875 -0.328125 1.828125 -0.984375 C 1.660156 -1.347656 1.554688 -1.664062 1.515625 -1.9375 C 1.484375 -2.207031 1.46875 -2.632812 1.46875 -3.21875 L 1.46875 -25.078125 C 1.46875 -25.628906 1.484375 -26.046875 1.515625 -26.328125 C 1.554688 -26.609375 1.660156 -26.921875 1.828125 -27.265625 C 2.171875 -27.921875 3.117188 -28.25 4.671875 -28.25 C 6.210938 -28.25 7.140625 -27.921875 7.453125 -27.265625 C 7.648438 -26.898438 7.765625 -26.578125 7.796875 -26.296875 C 7.835938 -26.015625 7.859375 -25.59375 7.859375 -25.03125 L 7.859375 -16.953125 C 9.078125 -18.441406 10.503906 -19.1875 12.140625 -19.1875 Z M 12.140625 -19.1875 "/></g></g></g><g fill="rgb(100%, 100%, 100%)" fill-opacity="1"><g transform="translate(103.040191, 41.176474)"><g><path d="M 13.953125 -17.21875 C 14.109375 -18.582031 15.070312 -19.265625 16.84375 -19.265625 C 17.800781 -19.265625 18.507812 -19.191406 18.96875 -19.046875 C 19.425781 -18.898438 19.742188 -18.640625 19.921875 -18.265625 C 20.109375 -17.898438 20.21875 -17.578125 20.25 -17.296875 C 20.289062 -17.023438 20.3125 -16.609375 20.3125 -16.046875 L 20.3125 -3.25 C 20.3125 -2.6875 20.289062 -2.265625 20.25 -1.984375 C 20.21875 -1.710938 20.117188 -1.390625 19.953125 -1.015625 C 19.609375 -0.390625 18.769531 -0.078125 17.4375 -0.078125 C 16.113281 -0.078125 15.226562 -0.238281 14.78125 -0.5625 C 14.332031 -0.894531 14.070312 -1.378906 14 -2.015625 C 13.09375 -0.722656 11.585938 -0.078125 9.484375 -0.078125 C 7.378906 -0.078125 5.421875 -1.035156 3.609375 -2.953125 C 1.804688 -4.878906 0.90625 -7.113281 0.90625 -9.65625 C 0.90625 -12.207031 1.8125 -14.4375 3.625 -16.34375 C 5.445312 -18.257812 7.441406 -19.21875 9.609375 -19.21875 C 10.441406 -19.21875 11.195312 -19.070312 11.875 -18.78125 C 12.5625 -18.488281 13.035156 -18.210938 13.296875 -17.953125 C 13.566406 -17.703125 13.785156 -17.457031 13.953125 -17.21875 Z M 7.3125 -9.609375 C 7.3125 -8.804688 7.625 -8.082031 8.25 -7.4375 C 8.882812 -6.789062 9.65625 -6.46875 10.5625 -6.46875 C 11.46875 -6.46875 12.21875 -6.796875 12.8125 -7.453125 C 13.40625 -8.109375 13.703125 -8.832031 13.703125 -9.625 C 13.703125 -10.414062 13.414062 -11.148438 12.84375 -11.828125 C 12.269531 -12.515625 11.5 -12.859375 10.53125 -12.859375 C 9.570312 -12.859375 8.796875 -12.515625 8.203125 -11.828125 C 7.609375 -11.148438 7.3125 -10.410156 7.3125 -9.609375 Z M 7.3125 -9.609375 "/></g></g></g><g fill="rgb(100%, 100%, 100%)" fill-opacity="1"><g transform="translate(125.365575, 41.176474)"><g><path d="M 14.53125 -19.046875 C 15 -18.898438 15.382812 -18.648438 15.6875 -18.296875 C 16 -17.941406 16.15625 -17.375 16.15625 -16.59375 C 16.15625 -15.8125 15.921875 -14.957031 15.453125 -14.03125 C 14.992188 -13.101562 14.328125 -12.640625 13.453125 -12.640625 C 13.015625 -12.640625 12.59375 -12.738281 12.1875 -12.9375 C 11.78125 -13.132812 11.25 -13.234375 10.59375 -13.234375 C 9.9375 -13.234375 9.320312 -13 8.75 -12.53125 C 8.175781 -12.070312 7.890625 -11.515625 7.890625 -10.859375 L 7.890625 -3.171875 C 7.890625 -2.617188 7.867188 -2.203125 7.828125 -1.921875 C 7.796875 -1.640625 7.679688 -1.316406 7.484375 -0.953125 C 7.117188 -0.316406 6.171875 0 4.640625 0 C 3.472656 0 2.632812 -0.207031 2.125 -0.625 C 1.726562 -0.96875 1.507812 -1.488281 1.46875 -2.1875 C 1.46875 -2.4375 1.46875 -2.789062 1.46875 -3.25 L 1.46875 -16.078125 C 1.46875 -16.640625 1.484375 -17.0625 1.515625 -17.34375 C 1.554688 -17.625 1.660156 -17.9375 1.828125 -18.28125 C 2.171875 -18.9375 3.117188 -19.265625 4.671875 -19.265625 C 6.140625 -19.265625 7.054688 -18.984375 7.421875 -18.421875 C 7.691406 -18.023438 7.828125 -17.625 7.828125 -17.21875 C 7.941406 -17.382812 8.113281 -17.585938 8.34375 -17.828125 C 8.582031 -18.078125 9.078125 -18.40625 9.828125 -18.8125 C 10.585938 -19.226562 11.253906 -19.4375 11.828125 -19.4375 C 12.398438 -19.4375 12.878906 -19.40625 13.265625 -19.34375 C 13.648438 -19.289062 14.070312 -19.191406 14.53125 -19.046875 Z M 14.53125 -19.046875 "/></g></g></g><g fill="rgb(100%, 100%, 100%)" fill-opacity="1"><g transform="translate(142.612026, 41.176474)"><g><path d="M 20.03125 -11.9375 C 20.03125 -10.4375 19.65625 -9.328125 18.90625 -8.609375 C 18.164062 -7.890625 17.347656 -7.53125 16.453125 -7.53125 L 7.78125 -7.53125 C 7.78125 -6.84375 8.179688 -6.265625 8.984375 -5.796875 C 9.796875 -5.335938 10.601562 -5.109375 11.40625 -5.109375 C 12.8125 -5.109375 13.921875 -5.257812 14.734375 -5.5625 L 15.125 -5.703125 C 15.707031 -5.972656 16.195312 -6.109375 16.59375 -6.109375 C 17.375 -6.109375 18.046875 -5.554688 18.609375 -4.453125 C 18.921875 -3.796875 19.078125 -3.238281 19.078125 -2.78125 C 19.078125 -0.613281 16.484375 0.46875 11.296875 0.46875 C 9.492188 0.46875 7.890625 0.160156 6.484375 -0.453125 C 5.085938 -1.078125 4 -1.898438 3.21875 -2.921875 C 1.675781 -4.898438 0.90625 -7.101562 0.90625 -9.53125 C 0.90625 -12.601562 1.898438 -15.054688 3.890625 -16.890625 C 5.878906 -18.734375 8.359375 -19.65625 11.328125 -19.65625 C 14.710938 -19.65625 17.195312 -18.460938 18.78125 -16.078125 C 19.613281 -14.816406 20.03125 -13.4375 20.03125 -11.9375 Z M 12.3125 -10.859375 C 13.238281 -10.859375 13.703125 -11.25 13.703125 -12.03125 C 13.703125 -12.582031 13.488281 -13.03125 13.0625 -13.375 C 12.632812 -13.71875 12.023438 -13.890625 11.234375 -13.890625 C 10.441406 -13.890625 9.65625 -13.566406 8.875 -12.921875 C 8.101562 -12.273438 7.71875 -11.585938 7.71875 -10.859375 Z M 12.3125 -10.859375 "/></g></g></g></svg>